Coordinates

Units are S.I. units (second, meters, Newtons, ...)
If the header above contains a line with 'inDegrees', this indicates whether rotational values are in degrees (yes) or radians (no).

inDegrees=no
nColumns=21
nRows=27
DataType=double
version=3
OpenSimVersion=4.6-2026-03-31-d6972f9e6
endheader
time	/jointset/ground_pelvis/pelvis_tilt/value	/jointset/ground_pelvis/pelvis_list/value	/jointset/ground_pelvis/pelvis_rotation/value	/jointset/ground_pelvis/pelvis_tx/value	/jointset/ground_pelvis/pelvis_ty/value	/jointset/ground_pelvis/pelvis_tz/value	/jointset/hip_r/hip_flexion_r/value	/jointset/hip_r/hip_adduction_r/value	/jointset/hip_r/hip_rotation_r/value	/jointset/walker_knee_r/knee_angle_r/value	/jointset/patellofemoral_r/knee_angle_r_beta/value	/jointset/ankle_r/ankle_angle_r/value	/jointset/subtalar_r/subtalar_angle_r/value	/jointset/hip_l/hip_flexion_l/value	/jointset/hip_l/hip_adduction_l/value	/jointset/hip_l/hip_rotation_l/value	/jointset/walker_knee_l/knee_angle_l/value	/jointset/patellofemoral_l/knee_angle_l_beta/value	/jointset/ankle_l/ankle_angle_l/value	/jointset/subtalar_l/subtalar_angle_l/value
147.496	-0.06760501259140883	-0.2248872754675773	1.554870376272121	0.8053015732482787	0.9472461816801439	-0.8772074589637077	-0.1584293040887844	-0.03636244027792579	0.01445492771889413	0.09405211571548934	0.09405211510125105	-0.2901935002626362	-0.05840061105339261	0.7385043116445793	0.01439807796103052	0.02124708124019817	1.160071458418879	1.160071457925902	-0.2360931499536121	-0.4934053459305138
147.5	-0.07136290495270078	-0.229861077912621	1.554926077565254	0.8051034583758987	0.9489505774245486	-0.8775681600728409	-0.1643103251899622	-0.04245775660829543	0.001128269405017353	0.08871564596463963	0.08871564521903047	-0.3118585607870442	-0.04462402653304464	0.7430280761860021	0.01781388126572224	0.01750634958690228	1.123768876692643	1.123768876176747	-0.2342242535893459	-0.4964115469002526
147.504	-0.07474860211186141	-0.2345198053886609	1.555038612746615	0.8048898068587438	0.9505559047138323	-0.8779291819416394	-0.16952354149404	-0.04806554606154604	-0.01189054478993073	0.0854239911953618	0.08542399028112257	-0.3323536109467624	-0.03303814091307951	0.7461580338716175	0.02103619150603234	0.01410438430323434	1.086021769177599	1.086021768643434	-0.2314703711711236	-0.4984173983019851
147.508	-0.07775478532005296	-0.238793136524222	1.555203894806973	0.8046613069743882	0.9520593971665814	-0.8782908091001419	-0.1741618491312623	-0.05318711085899424	-0.02438979168199003	0.08420695812782007	0.08420695701299438	-0.351601232335883	-0.02393871444122384	0.7478145565833333	0.02407528777637009	0.0110776632475041	1.046861677066522	1.046861676515544	-0.2276908487888813	-0.4991564534848432
147.512	-0.08037483246762328	-0.2426130799270388	1.555416046995532	0.8044190702109481	0.9534585256497775	-0.87865353657217	-0.1783204432260183	-0.05782479449701634	-0.03616624768605727	0.08507874820306097	0.08507874686472841	-0.369544492100378	-0.01757399524003346	0.7479277357134787	0.02693591883491341	0.008453704153100147	1.006337748325427	1.00633774775617	-0.2227816453321356	-0.4983795037091558
147.516	-0.08260283833062604	-0.2459151712801017	1.55566783861411	0.8041646057807375	0.9547509312916826	-0.8790180664583387	-0.1820947727827659	-0.06198130327927653	-0.04703111927786559	0.08803786536977087	0.08803786379694326	-0.3861489755293812	-0.01413657174156189	0.7464401149640724	0.0296170384740654	0.006249641359231083	0.9645203000845139	0.9645202994935541	-0.2166806864691395	-0.4958615200454362
147.52	-0.08443381618923297	-0.248639793062305	1.555951134198178	0.8038997840244592	0.9559343535101945	-0.8793853012538662	-0.1855782670062417	-0.06565925393774791	-0.05681549354295161	0.09306742362659674	0.0930674218219447	-0.4014043057562084	-0.01375714828802912	0.7433094892763552	0.03211199260288398	0.004470934389974912	0.9215042896629785	0.9215042890462755	-0.2093716886900998	-0.4914087160506489
147.524	-0.08586412644639352	-0.2507336148418951	1.556257342116162	0.8036267861317195	0.9570065559142882	-0.8797563302616506	-0.1888598575123678	-0.06886105148803727	-0.06537515493488641	0.1001358592127629	0.1001358571931101	-0.4153249354091527	-0.01650043329645979	0.738511708032389	0.03440923614695655	0.003110351429926626	0.8774125114057809	0.8774125107599942	-0.2008862142676538	-0.4848655885330865
147.528	-0.0868921429601122	-0.2521511691728544	1.556577848249531	0.8033480394135787	0.9579652503373591	-0.8801324052897586	-0.1920213017728613	-0.07158915433213371	-0.07259461970934239	0.1091980425337281	0.1091980403294382	-0.4279500450465992	-0.02236328732551847	0.7320434361296138	0.03649360205480835	0.002147388998988908	0.8323983265959833	0.8323983259194698	-0.1913037450018456	-0.476121698612331
147.532	-0.08751915430320108	-0.2528565088516682	1.556904421568931	0.8030661376462378	0.9588080227867126	-0.8805149037986507	-0.1951343985313898	-0.07384676322318455	-0.07839028866189163	0.1201967567646064	0.120196754417985	-0.4393424180004748	-0.03127512065285073	0.7239247397464993	0.03834811362057435	0.001548278583219443	0.7866477147401922	0.7866477140335371	-0.1807496421614843	-0.4651179272201437
147.536	-0.08775048775521949	-0.2528248218774478	1.557229575251414	0.8027837466380399	0.9595322687870734	-0.8809052796695966	-0.1982582683440747	-0.07563895317355511	-0.08271267338576753	0.1330644846119559	0.1330644821747253	-0.4495862013583667	-0.04310037005802955	0.7142012820908247	0.03995629970698462	0.001266700233453465	0.7403804269194457	0.7403804261855613	-0.1693909788269002	-0.4518519321317961
147.54	-0.0875968128385945	-0.2520438860188604	1.557546865110528	0.8025034968797853	0.9601351435022714	-0.8813050023432384	-0.201436863733594	-0.07697421839544745	-0.08554766531948942	0.1477254338143344	0.1477254313443208	-0.4587835444982739	-0.05764284730825232	0.7029459335046897	0.04130491364795288	0.00124528218973877	0.6938500487827021	0.6938500480265559	-0.1574303453631308	-0.4363824958865431
147.544	-0.08707553568206386	-0.2505152809552836	1.557851112312308	0.8022278676024943	0.960613527882289	-0.8817154852833022	-0.204696828776173	-0.07786633054709075	-0.08691681473803194	0.1640977240864551	0.1640977216437836	-0.4670502233690893	-0.07465178056995504	0.6902596646978492	0.04238688210335214	0.001417903550726427	0.647342833314257	0.6473428325421258	-0.1450978332898283	-0.418832414654954
147.548	-0.08621215757558939	-0.2482552810512803	1.558138543834619	0.8019590698217187	0.960964011004297	-0.8821380055898198	-0.2080458232884941	-0.07833635061673692	-0.08687659582908497	0.1820956342560115	0.1820956318991482	-0.4745104810737419	-0.09382936246564345	0.6762716232483871	0.04320424567604625	0.001712732284517808	0.601175228094286	0.6011752273124187	-0.1326414950702423	-0.3993895668103007
147.552	-0.08504144291352081	-0.2452953363956841	1.558406848235763	0.8016989385937698	0.9611828896622018	-0.8825736174142839	-0.2114714492114488	-0.0784145907728933	-0.08551664028037814	0.2016317765164644	0.2016317742983865	-0.4812914030603774	-0.1148395595683074	0.6611383033677611	0.04377081085161617	0.002055852588060246	0.5556900967702453	0.5556900959831103	-0.1203166682734492	-0.3783058425679097
147.556	-0.08360822029692293	-0.2416820544893559	1.558655150057523	0.8014488447674297	0.9612661862020672	-0.8830230619714206	-0.2149409103574197	-0.07814229029898555	-0.08295692235949723	0.2226190554564111	0.2226190534211558	-0.4875171809091099	-0.1373178814409491	0.6450417527844441	0.04411421953465765	0.002375284826662789	0.5112517129645334	0.5112517121731612	-0.1083746556725007	-0.3558937259648394
147.56	-0.08196764488562824	-0.2374766231278734	1.558883911025532	0.8012096343534437	0.9612096846806771	-0.8834866771282966	-0.2184014916492048	-0.07757276817757228	-0.07934390712696417	0.2449722952465736	0.244972293426486	-0.4933036159299685	-0.1608817858201174	0.6281868176159801	0.04427716933789064	0.002605158502415113	0.4682396754390362	0.4682396746400427	-0.09705134262309117	-0.3325204609828044
147.564	-0.08018479061255239	-0.2327536569853693	1.559094767115832	0.800981600283399	0.9610089839815864	-0.8839643094904719	-0.2217818705259394	-0.07677185712709134	-0.07484574236707314	0.2686094767138306	0.268609475127875	-0.4987531690783995	-0.185141382532472	0.6107974952563693	0.04431758660743124	0.002689757432040697	0.4270419547465666	0.4270419539322152	-0.08655638908310016	-0.3085998833805322
147.568	-0.07833349799772467	-0.2275994984312572	1.559290313010079	0.8007644871357629	0.9606595652353924	-0.8844552303098984	-0.2249941849737471	-0.07581749059524391	-0.06964665232183231	0.2934526008527681	0.2934525995061279	-0.5039507844857022	-0.2097100596659519	0.5931125394473596	0.04430764619920459	0.002587134267864608	0.3880473372187631	0.3880473363780854	-0.07706364983060562	-0.2845821602086037
147.572	-0.07649446932068206	-0.2221100346056868	1.559473851803497	0.8005575256976456	0.9601568718415597	-0.8849580553106072	-0.2279367261969834	-0.0747983911228073	-0.06394075380687063	0.3194282413560761	0.3194282402409173	-0.5089606520874692	-0.2342146225444587	0.5753805042110507	0.04433163424558863	0.002271990518321271	0.3516375678282212	0.3516375669489065	-0.06870340787700351	-0.2609417950252882
147.576	-0.07475269914964643	-0.2163881083586393	1.55964913486657	0.8003594919300427	0.9594964027179235	-0.8854706713104318	-0.2304971199348773	-0.07381190898828976	-0.05792557439599967	0.346467836751651	0.3464678358486545	-0.5138240532632601	-0.2583045865103357	0.5578544052908182	0.04448277989144245	0.001737550871828454	0.3181794779116049	0.3181794769822235	-0.06155682628811294	-0.238164278886344
147.58	-0.07319443965717351	-0.2105406238524963	1.55982011884974	0.8001687837484734	0.9586738202733612	-0.8859901775678318	-0.2325558696019614	-0.07296117138098772	-0.05179560139201388	0.374507733554485	0.3745077328348566	-0.5185583990313735	-0.2816603911989257	0.5407861501652479	0.04485932407389075	0.0009962468622681871	0.2880173146174736	0.2880173136296669	-0.05565280280186301	-0.2167317494158436
147.584	-0.07190396985995758	-0.2046754787066906	1.559990757313226	0.7999835099197274	0.9576850743909936	-0.8865128523046127	-0.2339901291553693	-0.07235177360512487	-0.04573617441272931	0.4034889601363553	0.403488959564297	-0.5231574976547445	-0.3040004228036191	0.5244208655565367	0.04556017950676738	7.913666100724801e-05	0.2614653966609937	0.2614653956113931	-0.05096723367807175	-0.1971080161104753
147.588	-0.07096044413217978	-0.1988984626106526	1.560164829201455	0.7998015888487534	0.9565265455982619	-0.8870341552557144	-0.2346775895284522	-0.07208825122052445	-0.03991794658978786	0.4333566663312627	0.4333566658668598	-0.5275930645344583	-0.3250868325651661	0.508991218900657	0.04668053646040719	-0.0009659364268926664	0.2388011417372807	0.238801140628978	-0.04742454950984279	-0.1797232868571379
147.592	-0.07043502229572127	-0.1933102243731414	1.56034579951736	0.799620857687369	0.9551952146358986	-0.8875487744497048	-0.2345004058473432	-0.07227051102438947	-0.03449205103848971	0.464059143363723	0.4640591429658988	-0.5318174788529928	-0.344730143725179	0.4947118002278469	0.04830768316856966	-0.002077395447281184	0.2202585187715711	0.2202585176150131	-0.04490127213550943	-0.1649589769319516
147.596	-0.0703883372365678	-0.1880033645031567	1.560536709752054	0.7994391903298257	0.9536888661463667	-0.8880507150906125	-0.2333490774533369	-0.07299029208219052	-0.02958605605986514	0.4955464470714541	0.4955464467005648	-0.5357676033071394	-0.3627924214087275	0.4817736603504938	0.05051716323727302	-0.003184021975524103	0.2060220925151698	0.2060220913284103	-0.04323131884905138	-0.1531332461373534
147.6	-0.07086825973395885	-0.1830597064912131	1.560740097447984	0.7992546193193932	0.9520063292523324	-0.8885334176334209	-0.2311261230784367	-0.07432767300212394	-0.02530075975376175	0.5277687985788286	0.5277687981987431	-0.5393692321962374	-0.3791885975993251	0.4703391566727412	0.05336930282926697	-0.004209747165515987	0.1962219001763278	0.1962218989845821	-0.04221280382054825	-0.1444881805360426
